<?xml version="1.0" standalone="no"?>
<!DOCTYPE svg PUBLIC "-//W3C//DTD SVG 20010904//EN"
 "http://www.w3.org/TR/2001/REC-SVG-20010904/DTD/svg10.dtd">
<svg version="1.0" xmlns="http://www.w3.org/2000/svg"
 width="300.000000pt" height="300.000000pt" viewBox="0 0 300.000000 300.000000"
 preserveAspectRatio="xMidYMid meet">
<metadata>
Created by potrace 1.14, written by Peter Selinger 2001-2017
</metadata>
<g transform="translate(0.000000,300.000000) scale(0.100000,-0.100000)"
fill="#000000" stroke="none">
<path d="M1380 2744 c-98 -13 -210 -38 -288 -65 -423 -149 -731 -506 -819
-946 -23 -119 -23 -347 0 -466 100 -504 490 -894 994 -994 119 -23 347 -23
466 0 180 36 402 132 437 190 40 65 19 160 -43 197 -50 31 -96 25 -200 -24
-612 -295 -1316 97 -1386 772 -34 330 114 665 383 864 549 408 1326 136 1509
-527 9 -33 21 -103 27 -155 9 -92 14 -480 6 -480 -3 0 -37 18 -78 39 -108 59
-211 84 -338 83 -129 -1 -191 -17 -335 -85 l-110 -52 -105 0 c-99 0 -109 2
-173 33 -86 43 -156 113 -199 199 -31 64 -33 74 -33 173 0 99 2 109 33 173 43
86 113 156 199 199 64 31 74 33 173 33 99 0 109 -2 173 -33 136 -67 219 -187
236 -340 5 -45 16 -93 25 -108 56 -84 185 -85 236 -1 40 65 17 255 -46 379
-124 247 -350 388 -624 388 -390 0 -690 -300 -690 -690 0 -389 300 -690 688
-690 129 0 195 16 336 82 98 46 119 52 191 56 115 6 170 -13 364 -126 190
-110 231 -121 291 -80 72 48 71 43 67 508 -4 458 -9 497 -76 678 -150 409
-508 715 -933 797 -83 16 -293 27 -358 19z"/>
</g>
</svg>
